# xmcd CD database file
#
# Track frame offsets:
#	150
#	14150
#	27087
#	40422
#	52157
#	66562
#	84495
#	96487
#	108129
#	118507
#	133170
#	148985
#
# Disc length: 2205 seconds
#
# Revision: 2
# Processed by: cddbd v1.5.2PL0 Copyright (c) Steve Scherf et al.
# Submitted via: CDex 1.51
#
DISCID=b7089b0c
DTITLE=B.B.King - Let Me Love You
DYEAR=1999
DGENRE=Blues
TTITLE0=Let Me Love You
TTITLE1=Driving Wheel
TTITLE2=Troubles Don't Last
TTITLE3=Did You Ever Love A Woman
TTITLE4=Whole Lot Of Lovin'
TTITLE5=Hold That Train
TTITLE6=You're Gonna Miss Me
TTITLE7=I'm Gonna Quit My Baby
TTITLE8=Come By Here
TTITLE9=I've Got A Right To Love My Baby
TTITLE10=I Can't Explain
TTITLE11=Walkin' Dr. Bill
EXTD=1999 Blues Interactions Inc., Kent Records\nImport from Japan YEAR: 1999
EXTT0=
EXTT1=
EXTT2=
EXTT3=
EXTT4=
EXTT5=
EXTT6=
EXTT7=
EXTT8=
EXTT9=
EXTT10=
EXTT11=
PLAYORDER=
